#!OML:ASF H:\LiuWeirdWalks\Patient Classification 1\Patient 1\Session 1\male.ASF
:FULLY-SPECIFIED
:DEGREES
886
root 1.20541 17.9743 4.13236 0.993299 -0.650707 -18.4104
lowerback 9.52083 0.738721 -8.87389
upperback 1.54149 -0.0555359 -3.12018
thorax -3.72942 0.0658457 1.72836
lowerneck -25.7915 3.26234 8.78596
upperneck 29.8302 -0.92101 5.20962
head 14.7904 1.42995 0.50747
rclavicle 1.11319e-014 -2.54444e-014
rhumerus -24.9485 -24.8903 -11.6454
rradius 35.8818
rwrist -7.48799
rhand -19.1643 -5.78152
rfingers 7.12502
rthumb 7.1466 -35.6409
lclavicle 1.11319e-014 -2.54444e-014
lhumerus -27.889 31.7827 22.8138
lradius 36.9543
lwrist 0.859208
lhand -18.7649 1.13936
lfingers 7.12502
lthumb 7.53205 30.9853
rfemur -6.36293 -4.85356 25.3651
rtibia 46.5576
rfoot 9.68429 5.95601
rtoes -9.07103
lfemur -12.4836 -7.17358 0.183553
ltibia 38.2411
lfoot -15.3295 17.3277
ltoes -10.8809
887
root 1.22846 17.9689 4.16684 0.932494 -0.942083 -18.3248
lowerback 9.44757 0.789534 -8.86506
upperback 1.55991 0.0189491 -3.19821
thorax -3.67635 0.0993922 1.63295
lowerneck -25.6669 3.30843 8.84456
upperneck 29.8297 -0.872336 5.23959
head 14.7662 1.45982 0.51812
rclavicle -3.18055e-015 2.22639e-014
rhumerus -24.5806 -24.9092 -11.454
rradius 35.9531
rwrist -7.47252
rhand -19.2389 -5.85941
rfingers 7.12502
rthumb 7.07451 -35.7212
lclavicle -3.18055e-015 2.22639e-014
lhumerus -28.5146 31.8562 22.748
lradius 36.8926
lwrist 0.856158
lhand -18.7103 1.13184
lfingers 7.12502
lthumb 7.58477 30.9758
rfemur -6.41625 -4.45781 25.248
rtibia 46.9298
rfoot 10.0391 5.75904
rtoes -9.97807
lfemur -12.1609 -7.23042 -0.0951779
ltibia 38.2806
lfoot -15.3764 17.7012
ltoes -10.7307
888
root 1.25031 17.9635 4.20134 0.867842 -1.23576 -18.2482
lowerback 9.36556 0.840223 -8.85829
upperback 1.57549 0.0941516 -3.2715
thorax -3.62123 0.133379 1.54379
lowerneck -25.5219 3.3571 8.9175
upperneck 29.8315 -0.820726 5.26257
head 14.7389 1.49132 0.523745
rclavicle 7.55382e-015 -3.18055e-015
rhumerus -24.2107 -24.922 -11.2752
rradius 36.0267
rwrist -7.43909
rhand -19.308 -5.89326
rfingers 7.12502
rthumb 7.00787 -35.7573
lclavicle 7.55382e-015 -3.18055e-015
lhumerus -29.1527 31.9165 22.679
lradius 36.8552
lwrist 0.861381
lhand -18.6365 1.09987
lfingers 7.12502
lthumb 7.65602 30.9413
rfemur -6.44443 -4.0794 25.1536
rtibia 47.3196
rfoot 10.3569 5.47001
rtoes -10.8661
lfemur -11.8432 -7.18788 -0.34171
ltibia 38.3223
lfoot -15.4474 17.9668
ltoes -10.6127
889
root 1.27114 17.9579 4.2358 0.798585 -1.51017 -18.1695
lowerback 9.28865 0.884631 -8.8597
upperback 1.58542 0.159377 -3.34256
thorax -3.5738 0.163018 1.46283
lowerneck -25.3636 3.40057 8.97963
upperneck 29.8523 -0.774527 5.2947
head 14.7173 1.52125 0.534001
rclavicle -6.36111e-015 2.8625e-014
rhumerus -23.846 -24.9492 -11.1057
rradius 36.0906
rwrist -7.40301
rhand -19.3849 -5.92022
rfingers 7.12502
rthumb 6.93365 -35.7867
lclavicle -6.36111e-015 2.8625e-014
lhumerus -29.7829 31.9729 22.6109
lradius 36.8187
lwrist 0.852949
lhand -18.5996 1.07618
lfingers 7.12502
lthumb 7.69161 30.9163
rfemur -6.44269 -3.75933 25.066
rtibia 47.6869
rfoot 10.6372 5.11622
rtoes -11.6684
lfemur -11.5373 -7.07341 -0.569812
ltibia 38.3649
lfoot -15.5441 18.1349
ltoes -10.5329
890
root 1.2912 17.9521 4.27087 0.722348 -1.75733 -18.0727
lowerback 9.2091 0.923193 -8.87809
upperback 1.59797 0.215697 -3.41809
thorax -3.52119 0.188241 1.38789
lowerneck -25.2025 3.43902 9.04627
upperneck 29.8442 -0.728238 5.3083
head 14.6816 1.54766 0.534973
rclavicle 1.23246e-014 -1.90833e-014
rhumerus -23.5008 -24.9812 -10.9412
rradius 36.1495
rwrist -7.35926
rhand -19.4326 -5.88919
rfingers 7.12502
rthumb 6.88754 -35.7572
lclavicle 1.23246e-014 -1.90833e-014
lhumerus -30.394 32.0223 22.5582
lradius 36.8035
lwrist 0.873401
lhand -18.6129 1.07997
lfingers 7.12502
lthumb 7.67881 30.9206
rfemur -6.39937 -3.50858 24.9626
rtibia 47.9947
rfoot 10.8924 4.72012
rtoes -12.2957
lfemur -11.2383 -6.90016 -0.799547
ltibia 38.404
lfoot -15.6707 18.21
ltoes -10.5071
891
root 1.31055 17.9463 4.30654 0.637604 -1.97029 -17.9662
lowerback 9.13452 0.955355 -8.90521
upperback 1.61732 0.262788 -3.49471
thorax -3.46328 0.2087 1.31794
lowerneck -25.0551 3.47048 9.10824
upperneck 29.839 -0.687702 5.30937
head 14.6497 1.56955 0.530597
rclavicle -1.98785e-015 3.18055e-015
rhumerus -23.1761 -25.0201 -10.7795
rradius 36.2028
rwrist -7.34282
rhand -19.4762 -5.81827
rfingers 7.12502
rthumb 6.8455 -35.6876
lclavicle -1.98785e-015 3.18055e-015
lhumerus -30.958 32.079 22.5283
lradius 36.7867
lwrist 0.920794
lhand -18.6636 1.13838
lfingers 7.12502
lthumb 7.62988 30.9808
rfemur -6.3128 -3.33346 24.8509
rtibia 48.2165
rfoot 11.135 4.32424
rtoes -12.7978
lfemur -10.9464 -6.69246 -1.02292
ltibia 38.4396
lfoot -15.8193 18.2087
ltoes -10.5339
892
root 1.32924 17.9405 4.34275 0.549052 -2.13942 -17.8612
lowerback 9.05523 0.977129 -8.92594
upperback 1.64683 0.298373 -3.57274
thorax -3.3909 0.222726 1.24466
lowerneck -24.925 3.49101 9.15832
upperneck 29.8314 -0.659479 5.30835
head 14.6199 1.58468 0.525039
rclavicle -1.66979e-014 -9.54166e-015
rhumerus -22.8702 -25.0925 -10.6186
rradius 36.2217
rwrist -7.3158
rhand -19.4938 -5.71822
rfingers 7.12502
rthumb 6.82848 -35.5881
lclavicle -1.66979e-014 -9.54166e-015
lhumerus -31.4744 32.15 22.5157
lradius 36.777
lwrist 0.985857
lhand -18.7482 1.22613
lfingers 7.12502
lthumb 7.5482 31.0714
rfemur -6.18415 -3.23121 24.7388
rtibia 48.3406
rfoot 11.345 3.95299
rtoes -13.2971
lfemur -10.6686 -6.47033 -1.22877
ltibia 38.4726
lfoot -15.9811 18.1428
ltoes -10.6145
893
root 1.3471 17.9347 4.37898 0.46661 -2.26618 -17.7872
lowerback 8.97925 0.987483 -8.9213
upperback 1.67427 0.321335 -3.64097
thorax -3.32133 0.230541 1.1692
lowerneck -24.819 3.50097 9.18194
upperneck 29.8415 -0.645294 5.32198
head 14.6029 1.59411 0.527928
rclavicle 2.78299e-015 -6.99722e-014
rhumerus -22.5913 -25.1519 -10.4634
rradius 36.2291
rwrist -7.32301
rhand -19.4793 -5.55414
rfingers 7.12502
rthumb 6.84253 -35.4236
lclavicle 2.78299e-015 -6.99722e-014
lhumerus -31.9418 32.2511 22.5087
lradius 36.7503
lwrist 1.06846
lhand -18.8481 1.32286
lfingers 7.12502
lthumb 7.45175 31.1716
rfemur -6.02531 -3.18587 24.6606
rtibia 48.3735
rfoot 11.5279 3.61456
rtoes -13.8389
lfemur -10.4182 -6.23723 -1.38083
ltibia 38.5065
lfoot -16.1506 18.0151
ltoes -10.7477
894
root 1.36396 17.929 4.41485 0.390544 -2.34676 -17.7476
lowerback 8.90614 0.988098 -8.88968
upperback 1.69511 0.33362 -3.69964
thorax -3.25928 0.23338 1.09008
lowerneck -24.7162 3.49325 9.18439
upperneck 29.894 -0.659075 5.35683
head 14.6053 1.59424 0.538625
rclavicle 7.55382e-015 -7.31528e-014
rhumerus -22.3523 -25.2111 -10.3036
rradius 36.2254
rwrist -7.34722
rhand -19.4332 -5.42579
rfingers 7.12502
rthumb 6.88699 -35.2938
lclavicle 7.55382e-015 -7.31528e-014
lhumerus -32.3655 32.3137 22.5231
lradius 36.7367
lwrist 1.21462
lhand -18.9382 1.41339
lfingers 7.12502
lthumb 7.36479 31.2652
rfemur -5.84185 -3.18375 24.6172
rtibia 48.336
rfoot 11.6888 3.31285
rtoes -14.4145
lfemur -10.1961 -6.00354 -1.47694
ltibia 38.5416
lfoot -16.321 17.836
ltoes -10.9245
895
root 1.37941 17.9234 4.44999 0.327713 -2.39368 -17.745
lowerback 8.84399 0.982175 -8.84386
upperback 1.69213 0.335876 -3.74412
thorax -3.22755 0.232864 1.01878
lowerneck -24.6028 3.46559 9.15275
upperneck 29.9895 -0.703518 5.43196
head 14.6247 1.58505 0.566409
rclavicle 9.93923e-015 -1.27222e-014
rhumerus -22.1571 -25.2426 -10.14
rradius 36.2095
rwrist -7.36069
rhand -19.3541 -5.33696
rfingers 7.12502
rthumb 6.96333 -35.2024
lclavicle 9.93923e-015 -1.27222e-014
lhumerus -32.7622 32.349 22.5382
lradius 36.7204
lwrist 1.38147
lhand -19.0079 1.47671
lfingers 7.12502
lthumb 7.29749 31.3309
rfemur -5.64934 -3.19655 24.6163
rtibia 48.2578
rfoot 11.8389 3.03071
rtoes -15.0795
lfemur -10.005 -5.76994 -1.51393
ltibia 38.5787
lfoot -16.482 17.6199
ltoes -11.1284
896
root 1.39378 17.9184 4.48474 0.278267 -2.40437 -17.7513
lowerback 8.78947 0.972624 -8.80774
upperback 1.6698 0.330161 -3.78229
thorax -3.21982 0.229833 0.960054
lowerneck -24.5085 3.43527 9.13558
upperneck 30.0988 -0.760761 5.50367
head 14.6545 1.57259 0.588737
rclavicle -4.37326e-015 -3.18055e-015
rhumerus -22.0142 -25.25 -9.96732
rradius 36.1981
rwrist -7.38003
rhand -19.2669 -5.25567
rfingers 7.12502
rthumb 7.04756 -35.1183
lclavicle -4.37326e-015 -3.18055e-015
lhumerus -33.1223 32.3371 22.5797
lradius 36.7173
lwrist 1.56124
lhand -19.0563 1.50932
lfingers 7.12502
lthumb 7.25079 31.3651
rfemur -5.45483 -3.22157 24.6225
rtibia 48.1656
rfoot 11.9866 2.77323
rtoes -15.7745
lfemur -9.84297 -5.53682 -1.52736
ltibia 38.6156
lfoot -16.6369 17.3725
ltoes -11.3469
